<svg width="1024" height="864" viewBox="0 0 1024 864" fill="none" xmlns="http://www.w3.org/2000/svg">
<path d="M104.718 223.999C103.151 190.106 112.845 160.225 132.631 133.425C147.801 112.877 167.731 98.5864 191.107 88.9326C208.51 81.7452 226.793 78.8492 245.583 78.897C258.915 78.9308 272.249 78.8384 285.581 78.8774C303.845 78.9307 321.423 75.3618 338.984 70.4319C359.11 64.7821 379.607 60.4836 400.197 56.6176C419.671 52.961 439.317 50.7625 458.927 48.2917C470.959 46.7757 483.149 46.1717 495.285 45.9105C515.934 45.466 536.594 45.4236 557.184 47.7221C597.727 52.248 635.633 63.6811 668.305 89.2898C684.594 102.058 695.78 118.513 703.968 137.254C706.432 142.894 709.019 148.481 711.423 154.147C715.75 164.345 722.503 172.225 731.382 179.094C755.112 197.451 769.416 222.389 778.196 250.667C782.146 263.392 787.707 275.007 797.037 284.771C809.794 298.121 816.656 314.612 821.293 332.187C825.375 347.656 827.626 363.343 827.095 379.38C826.724 390.587 824.737 401.461 820.935 412.039C819.414 416.272 816.615 418.032 812.323 418.181C808.166 418.325 803.983 418.437 799.872 419.003C793.892 419.826 791.347 422.246 791.475 428.19C791.982 451.648 789.92 475.125 792.876 498.579C796.833 529.962 809.565 557.357 828.65 582.209C846.205 605.069 867.627 623.432 893.659 635.584C915.776 645.908 938.738 654.422 961.322 663.747C964.086 664.889 966.753 666.322 969.593 667.217C974.121 668.645 974.793 671.82 974.109 675.846C972.299 686.515 965.008 693.815 958.168 701.271C946.093 714.432 931.918 725.378 919.059 737.71C901.146 754.888 883.728 772.583 865.768 789.71C854.106 800.83 842.888 812.507 828.801 820.857C816.963 827.874 805.344 827.197 793.756 820.877C780.539 813.668 768.601 804.534 757.205 794.793C742.004 781.8 727.735 767.786 714.078 753.171C694.681 732.413 678.099 709.477 662.402 685.876C646.867 662.518 633.983 637.734 624.053 611.523C619.139 598.551 615.117 585.243 611.507 571.784C602.659 538.806 601.394 505.119 601.591 471.372C601.723 448.78 603.19 426.134 608.183 403.952C610.624 393.112 614.856 382.801 618.339 372.27C619.851 367.701 621.241 363.084 622.458 358.429C623.457 354.608 622.924 351.659 618.797 349.299C610.787 344.718 602.224 341.484 593.549 338.862C579.673 334.668 566.181 329.445 552.659 324.365C536.698 318.368 521.645 317.83 506.073 325.951C491.511 333.545 475.302 335.996 459.152 338.506C426.613 343.564 393.83 343.418 361.065 344.698C334.626 345.731 308.113 345.543 281.727 348.11C250.23 351.173 219.262 356.66 189.781 368.563C168.955 376.971 150.053 388.754 132.789 403.119C122.936 411.318 113.322 419.809 103.344 427.851C91.8459 437.117 84.5576 432.94 77.5588 422.253C72.5689 414.633 71.3672 405.67 70.9854 396.922C70.032 375.072 74.9661 354.041 80.8752 333.153C84.8906 318.96 91.175 305.889 98.3349 293.108C105.88 279.639 106.387 264.868 105.726 249.935C105.35 241.458 105.053 232.978 104.718 223.999ZM621.625 244.681C633.556 245.778 645.497 246.769 657.415 247.997C673.283 249.633 689.099 251.898 704.999 253.049C717.266 253.936 729.469 255.769 741.807 255.747C745.459 255.74 745.852 254.138 745.164 250.988C741.929 236.188 734.152 224.026 723.65 213.441C704.712 194.354 682.265 180.721 657.233 171.238C647.909 167.706 638.13 165.762 628.444 163.45C616.513 160.601 604.464 158.445 592.405 156.352C582.418 154.62 572.308 153.606 562.281 152.091C547.519 149.862 532.687 148.145 517.974 145.518C507.699 143.684 497.192 143.175 486.891 141.456C465.5 137.887 444.059 135.843 422.322 136.094C401.812 136.331 381.885 139.742 362.544 146.014C339.264 153.562 316.781 163.079 296.198 176.664C276.623 189.584 258.286 203.826 244.483 223.115C239.557 229.999 235.695 237.385 234.892 246.524C246.27 247.12 257.048 246.143 267.795 245.524C290.887 244.195 313.936 242.115 337.032 240.881C353.323 240.011 369.665 240.121 385.979 239.632C426.954 238.404 467.925 238.422 508.902 239.58C546.192 240.634 583.461 242.111 621.625 244.681ZM696.419 377.182C685.568 373.028 674.495 369.509 663.233 366.732C659.508 365.813 654.773 364.31 652.137 369.359C650.066 373.327 647.778 377.234 646.205 381.401C638.887 400.79 635.168 420.988 633.07 441.54C630.939 462.416 629.226 483.219 631.118 504.303C632.99 525.181 635.625 545.787 640.852 566.149C646.972 589.988 656.22 612.479 667.727 634.097C680.023 657.199 693.779 679.408 709.881 700.087C723.199 717.189 737.132 733.759 753.584 747.996C756.079 750.155 758.528 752.794 762.485 753.153C763.394 747.492 762.725 742.226 761.498 737.046C758.891 726.041 756.01 715.107 756.611 703.618C756.793 700.144 756.396 696.639 756.249 693.149C755.521 675.805 756.182 658.507 759.274 641.426C762.68 622.606 768.577 604.436 774.882 586.408C778.531 575.972 782.399 565.481 777.108 554.488C768.87 537.372 764.238 519.354 762.003 500.505C759.636 480.539 760.481 460.59 761.318 440.659C761.814 428.854 762.707 417.072 762.609 405.24C762.587 402.608 761.536 401.224 759.185 400.486C738.112 393.868 717.753 385.329 696.419 377.182ZM254.138 320.627C267.784 318.433 281.488 316.838 295.332 316.854C334.309 316.899 373.257 315.835 412.172 313.668C430.581 312.643 448.909 310.85 466.715 305.701C471.566 304.299 476.431 302.718 480.339 299.193C478.979 296.964 476.998 296.39 475.212 295.6C455.768 286.997 435.993 279.273 415.392 273.88C403.98 270.893 392.417 268.161 380.551 268.588C365.588 269.126 350.651 270.355 335.705 271.319C314.451 272.688 293.169 273.74 271.963 275.647C263.512 276.407 254.99 276.561 246.626 277.68C231.834 279.659 216.953 280.735 202.154 282.743C184.557 285.13 166.935 287.32 149.449 290.425C142.347 291.687 135.641 294.257 130.896 300.106C127.756 303.975 124.772 307.98 122.357 312.391C114.147 327.387 108.933 343.457 105.442 360.092C103.995 366.992 103.368 374.064 102.206 382.188C109.334 380.016 114.703 376.944 119.841 373.409C132.598 364.633 145.329 355.812 159.097 348.651C176.441 339.63 194.76 333.076 213.649 328.272C226.671 324.96 239.876 322.294 254.138 320.627ZM228.636 195.149C256.638 161.792 291.463 138.227 332.393 123.696C331.262 119.388 330.118 115.883 325.901 114.858C321.893 113.885 317.869 112.6 313.798 112.351C306.169 111.885 298.599 110.712 291.073 109.768C263.393 106.298 236.241 108.363 209.628 116.215C170.761 127.682 147.359 153.728 139.432 193.415C135.295 214.13 135.932 235.105 137.257 256.06C137.374 257.908 137.747 259.441 140.04 259.322C153.623 258.616 167.371 260.003 180.662 255.721C190.968 252.401 198.8 246.858 203.047 236.21C208.994 221.301 217.583 207.828 228.636 195.149ZM799.742 761.71C802.764 770.199 806.991 778.098 811.405 785.925C813.467 789.582 815.774 790.674 819.339 787.924C824.871 783.656 830.883 779.917 835.956 775.167C858.441 754.113 880.697 732.815 902.435 710.982C909.13 704.257 915.888 697.601 921.097 689.588C924.787 683.913 924.699 683.287 918.505 680.507C908.355 675.951 898.106 671.617 887.932 667.115C859.635 654.596 835.303 636.716 815.168 613.176C812.665 610.249 809.79 607.783 806.508 605.702C802.979 603.465 800.957 604.076 799.159 607.953C792.731 621.816 789.326 636.39 787.59 651.52C784.605 677.539 786.12 703.277 790.87 728.971C792.89 739.903 796.212 750.41 799.742 761.71ZM541.213 286.26C576.146 299.975 611.064 313.728 646.256 326.773C667.769 334.747 689.137 343.114 710.672 351.027C730.46 358.298 750.311 365.413 770.284 372.154C778.376 374.885 786.425 378.067 795.445 379.551C795.445 371.362 796.454 363.588 795.238 356.178C792.559 339.849 786.567 324.611 777.55 310.569C769.533 298.084 758.573 290.577 743.872 288.091C730.763 285.874 717.614 284.216 704.407 282.733C698.506 282.071 692.445 281.916 686.664 280.559C678.201 278.572 669.525 278.383 661.007 277.628C651.087 276.748 641.119 275.79 631.222 274.8C609.693 272.645 588.089 271.766 566.531 270.371C548.111 269.179 529.556 270.043 511.061 270.063C509.529 270.065 507.761 269.413 505.835 271.507C517.628 276.417 529.068 281.18 541.213 286.26ZM612.7 128.758C631.311 132.272 649.496 137.969 669.432 140.643C665.436 131.05 660.456 123.809 653.572 117.785C640.639 106.467 625.807 98.416 609.921 92.179C591.615 84.9916 572.604 79.7675 553.065 78.7896C530.668 77.6686 508.217 76.8679 485.688 77.9271C458.887 79.1871 432.515 82.6549 406.385 88.381C402.135 89.3126 397.526 89.7654 393.972 92.8243C394.496 94.4968 395.769 95.1069 396.986 95.4456C409.116 98.8219 421.373 101.657 433.819 103.605C446.29 105.556 458.768 107.464 471.256 109.299C483.723 111.131 496.193 112.944 508.685 114.592C521.376 116.266 534.101 117.686 546.801 119.296C558.005 120.717 569.185 122.339 580.395 123.703C590.94 124.986 601.486 126.221 612.7 128.758Z" fill="currentColor"/>
</svg>
